<svg width="20" height="20" fill="none" xmlns="http://www.w3.org/2000/svg"><g filter="url(#filter0_i_93148_18)"><path d="M8.326 11.652c0 .861-.625 1.134-1.393 1.134H4.92v-2.362h2.053c.83.005 1.353.348 1.353 1.228zm-.344-3.674c0-.79-.611-.978-1.29-.978H4.924v2H6.83c.674 0 1.152-.295 1.152-1.022zm5.906 1.035c-.817 0-1.361.51-1.415 1.326h2.777c-.076-.826-.505-1.326-1.362-1.326zM20 2.143v15.714C20 19.04 19.04 20 17.857 20H2.143A2.143 2.143 0 010 17.857V2.143C0 .96.96 0 2.143 0h15.714C19.04 0 20 .96 20 2.143zM12.13 6.83h3.473v-.843H12.13v.843zm-1.92 4.925c0-1.076-.51-2.005-1.563-2.304.768-.366 1.17-.79 1.17-1.652 0-1.705-1.272-2.12-2.741-2.12h-4.04v8.571h4.156c1.558-.009 3.018-.755 3.018-2.495zm6.754-.661c0-1.835-1.076-3.366-3.018-3.366-1.892 0-3.174 1.42-3.174 3.285 0 1.933 1.22 3.26 3.174 3.26 1.483 0 2.442-.666 2.907-2.09h-1.505c-.165.531-.83.808-1.348.808-1 0-1.522-.585-1.522-1.576h4.473c.004-.102.013-.214.013-.321z" fill="#000"/></g><defs><filter id="filter0_i_93148_18" x="0" y="0" width="20" height="24" filterUnits="userSpaceOnUse" color-interpolation-filters="sRGB"><feFlood flood-opacity="0" result="BackgroundImageFix"/><feBlend in="SourceGraphic" in2="BackgroundImageFix" result="shape"/><feColorMatrix in="SourceAlpha" values="0 0 0 0 0 0 0 0 0 0 0 0 0 0 0 0 0 0 127 0" result="hardAlpha"/><feOffset dy="4"/><feGaussianBlur stdDeviation="2"/><feComposite in2="hardAlpha" operator="arithmetic" k2="-1" k3="1"/><feColorMatrix values="0 0 0 0 0 0 0 0 0 0 0 0 0 0 0 0 0 0 0.25 0"/><feBlend in2="shape" result="effect1_innerShadow_93148_18"/></filter></defs></svg>