<svg width="21" height="21" fill="none" xmlns="http://www.w3.org/2000/svg"><path d="M.077 1.432C.08.642.74.002 1.55.006l17.063.07c.81.004 1.466.648 1.462 1.44l-.07 17.134c-.004.791-.664 1.43-1.475 1.426l-17.062-.07c-.812-.003-1.466-.647-1.463-1.439l.07-17.135zm6.115 15.336l.037-9.031-3-.013-.038 9.032 3.001.012zM4.734 6.497c1.047.004 1.7-.686 1.704-1.553-.015-.887-.643-1.563-1.67-1.567-1.028-.004-1.702.668-1.706 1.553-.003.867.645 1.563 1.652 1.567h.02zm6.093 10.29l.02-5.044c.002-.27.023-.54.104-.732.218-.538.714-1.094 1.544-1.09 1.087.004 1.517.833 1.512 2.048l-.02 4.831 3.001.012.022-5.18c.011-2.774-1.464-4.07-3.439-4.079-1.592-.006-2.31.866-2.712 1.48v.032h-.02l.02-.032.005-1.277-3-.013c.034.848-.037 9.032-.037 9.032l3 .012z" fill="#000"/></svg>