<svg width="21" height="21" fill="none" xmlns="http://www.w3.org/2000/svg"><path fill-rule="evenodd" clip-rule="evenodd" d="M20.323 9.994c.184 5.52-4.142 10.144-9.661 10.329C5.142 20.507.518 16.18.334 10.662.149 5.142 4.475.518 9.994.334c5.52-.185 10.144 4.141 10.329 9.66zM10.599 7.7c-.959.437-2.874 1.338-5.745 2.705-.466.204-.708.396-.725.577-.028.306.357.413.88.559l.222.062c.516.149 1.21.32 1.566.316.324-.005.681-.15 1.07-.436 2.661-1.93 4.035-2.905 4.123-2.928.062-.016.148-.037.208.013.06.05.057.148.053.175-.033.162-1.481 1.602-2.232 2.348-.234.232-.4.397-.433.434a10.24 10.24 0 01-.227.24c-.46.473-.803.828.065 1.36.417.255.751.466 1.084.677.364.23.727.46 1.197.746.119.073.233.148.345.222.424.282.805.534 1.263.477.266-.034.534-.294.649-1.047.271-1.782.795-5.638.893-7.224a1.764 1.764 0 00-.03-.392.422.422 0 00-.152-.266c-.123-.094-.308-.108-.392-.104-.375.02-.945.24-3.682 1.486z" fill="#000"/></svg>