<svg width="20" height="20" fill="none" xmlns="http://www.w3.org/2000/svg"><g filter="url(#filter0_i_5_30)"><path d="M13.75 0h-7.5A6.25 6.25 0 000 6.25v7.5A6.25 6.25 0 006.25 20h7.5A6.25 6.25 0 0020 13.75v-7.5A6.25 6.25 0 0013.75 0zm4.375 13.75a4.38 4.38 0 01-4.375 4.375h-7.5a4.38 4.38 0 01-4.375-4.375v-7.5A4.38 4.38 0 016.25 1.875h7.5a4.38 4.38 0 014.375 4.375v7.5z" fill="#fff"/></g><path d="M6.25.5h7.5a5.75 5.75 0 015.75 5.75v7.5a5.75 5.75 0 01-5.75 5.75h-7.5A5.75 5.75 0 01.5 13.75v-7.5A5.75 5.75 0 016.25.5zm7.5 18.125a4.88 4.88 0 004.875-4.875v-7.5a4.88 4.88 0 00-4.875-4.875h-7.5A4.88 4.88 0 001.375 6.25v7.5a4.88 4.88 0 004.875 4.875h7.5z" stroke="#FF95C8"/><path d="M5.5 10a4.5 4.5 0 119 0 4.5 4.5 0 01-9 0zm.875 0A3.63 3.63 0 0010 13.625 3.63 3.63 0 0013.625 10c0-2-1.627-3.625-3.625-3.625A3.629 3.629 0 006.375 10zm9.166-5.375a.166.166 0 11-.332 0 .166.166 0 01.332 0z" fill="#fff" stroke="#FF95C8"/><defs><filter id="filter0_i_5_30" x="0" y="0" width="20" height="24" filterUnits="userSpaceOnUse" color-interpolation-filters="sRGB"><feFlood flood-opacity="0" result="BackgroundImageFix"/><feBlend in="SourceGraphic" in2="BackgroundImageFix" result="shape"/><feColorMatrix in="SourceAlpha" values="0 0 0 0 0 0 0 0 0 0 0 0 0 0 0 0 0 0 127 0" result="hardAlpha"/><feOffset dy="4"/><feGaussianBlur stdDeviation="2"/><feComposite in2="hardAlpha" operator="arithmetic" k2="-1" k3="1"/><feColorMatrix values="0 0 0 0 0 0 0 0 0 0 0 0 0 0 0 0 0 0 0.25 0"/><feBlend in2="shape" result="effect1_innerShadow_5_30"/></filter></defs></svg>