<svg width="22" height="22" fill="none" xmlns="http://www.w3.org/2000/svg"><path d="M1.035 2.391C1.04 1.6 1.7.961 2.51.965l17.063.07c.81.004 1.466.648 1.462 1.439l-.07 17.135c-.004.791-.664 1.43-1.475 1.426l-17.062-.07C1.616 20.96.96 20.317.965 19.526l.07-17.135zm6.116 15.336l.037-9.032-3.001-.012-.037 9.031 3 .013zM5.693 7.456c1.047.004 1.7-.686 1.704-1.553-.015-.887-.643-1.563-1.67-1.567-1.028-.005-1.702.668-1.706 1.553-.004.867.645 1.562 1.652 1.566h.02zm6.093 10.29l.02-5.044c.002-.27.023-.54.104-.732.218-.538.714-1.095 1.544-1.091 1.086.004 1.517.834 1.512 2.049l-.02 4.83 3.001.013.021-5.18c.012-2.775-1.463-4.07-3.438-4.079-1.592-.007-2.31.866-2.712 1.48v.031h-.02l.02-.03.005-1.278-3-.013c.034.848-.037 9.031-.037 9.031l3 .013z" fill="#FF95C8"/></svg>